<?xml version="1.0" encoding="UTF-8" standalone="no"?>
<!DOCTYPE svg PUBLIC "-//W3C//DTD SVG 1.1//EN"
 "http://www.w3.org/Graphics/SVG/1.1/DTD/svg11.dtd">
<!-- Generated by graphviz version 15.1.0 (0)
 -->
<!-- Title: graphs Pages: 1 -->
<svg width="603pt" height="933pt"
 viewBox="0.00 0.00 603.00 933.00" xmlns="http://www.w3.org/2000/svg" xmlns:xlink="http://www.w3.org/1999/xlink">
<g id="graph0" class="graph" transform="scale(1 1) rotate(0) translate(21.6 911.19)">
<title>graphs</title>
<polygon fill="white" stroke="none" points="-21.6,21.6 -21.6,-911.19 581.38,-911.19 581.38,21.6 -21.6,21.6"/>
<text xml:space="preserve" text-anchor="middle" x="279.89" y="-866.59" font-family="sans" font-size="20.00">tGraphAlg.nim — all graphs</text>
<g id="clust1" class="cluster">
<title>cluster_g0</title>
<path fill="#fafafa" stroke="#bbbbbb" d="M35.94,-8.84C35.94,-8.84 243.91,-8.84 243.91,-8.84 249.91,-8.84 255.91,-14.84 255.91,-20.84 255.91,-20.84 255.91,-77.84 255.91,-77.84 255.91,-83.84 249.91,-89.84 243.91,-89.84 243.91,-89.84 35.94,-89.84 35.94,-89.84 29.94,-89.84 23.94,-83.84 23.94,-77.84 23.94,-77.84 23.94,-20.84 23.94,-20.84 23.94,-14.84 29.94,-8.84 35.94,-8.84"/>
<text xml:space="preserve" text-anchor="middle" x="139.92" y="-72.54" font-family="sans" font-size="14.00">g0: simple chain</text>
</g>
<g id="clust2" class="cluster">
<title>cluster_g1</title>
<path fill="#fafafa" stroke="#bbbbbb" d="M35.94,-97.84C35.94,-97.84 465.49,-97.84 465.49,-97.84 471.49,-97.84 477.49,-103.84 477.49,-109.84 477.49,-109.84 477.49,-280.84 477.49,-280.84 477.49,-286.84 471.49,-292.84 465.49,-292.84 465.49,-292.84 35.94,-292.84 35.94,-292.84 29.94,-292.84 23.94,-286.84 23.94,-280.84 23.94,-280.84 23.94,-109.84 23.94,-109.84 23.94,-103.84 29.94,-97.84 35.94,-97.84"/>
<text xml:space="preserve" text-anchor="middle" x="250.71" y="-275.54" font-family="sans" font-size="14.00">g1: diamondlike</text>
</g>
<g id="clust3" class="cluster">
<title>cluster_g2</title>
<path fill="#fafafa" stroke="#bbbbbb" d="M12,-300.84C12,-300.84 539.78,-300.84 539.78,-300.84 545.78,-300.84 551.78,-306.84 551.78,-312.84 551.78,-312.84 551.78,-573.84 551.78,-573.84 551.78,-579.84 545.78,-585.84 539.78,-585.84 539.78,-585.84 12,-585.84 12,-585.84 6,-585.84 0,-579.84 0,-573.84 0,-573.84 0,-312.84 0,-312.84 0,-306.84 6,-300.84 12,-300.84"/>
<text xml:space="preserve" text-anchor="middle" x="275.89" y="-568.54" font-family="sans" font-size="14.00">g2: loop &amp; singletons</text>
</g>
<g id="clust4" class="cluster">
<title>cluster_g2_sing</title>
<polygon fill="#fafafa" stroke="#999999" stroke-dasharray="5,2" points="8,-308.84 8,-505.84 93,-505.84 93,-308.84 8,-308.84"/>
<text xml:space="preserve" text-anchor="middle" x="50.5" y="-488.54" font-family="sans" font-size="14.00">singletons</text>
</g>
<g id="clust5" class="cluster">
<title>cluster_g3</title>
<path fill="#fafafa" stroke="#bbbbbb" d="M12.5,-593.84C12.5,-593.84 88.5,-593.84 88.5,-593.84 94.5,-593.84 100.5,-599.84 100.5,-605.84 100.5,-605.84 100.5,-679.84 100.5,-679.84 100.5,-685.84 94.5,-691.84 88.5,-691.84 88.5,-691.84 12.5,-691.84 12.5,-691.84 6.5,-691.84 0.5,-685.84 0.5,-679.84 0.5,-679.84 0.5,-605.84 0.5,-605.84 0.5,-599.84 6.5,-593.84 12.5,-593.84"/>
<text xml:space="preserve" text-anchor="middle" x="50.5" y="-674.54" font-family="sans" font-size="14.00">g3: self edge</text>
</g>
<g id="clust6" class="cluster">
<title>cluster_g4</title>
<path fill="#fafafa" stroke="#bbbbbb" d="M35.94,-699.84C35.94,-699.84 327.19,-699.84 327.19,-699.84 333.19,-699.84 339.19,-705.84 339.19,-711.84 339.19,-711.84 339.19,-833.84 339.19,-833.84 339.19,-839.84 333.19,-845.84 327.19,-845.84 327.19,-845.84 35.94,-845.84 35.94,-845.84 29.94,-845.84 23.94,-839.84 23.94,-833.84 23.94,-833.84 23.94,-711.84 23.94,-711.84 23.94,-705.84 29.94,-699.84 35.94,-699.84"/>
<text xml:space="preserve" text-anchor="middle" x="181.56" y="-828.54" font-family="sans" font-size="14.00">g4: multicycle single SCC</text>
</g>
<g id="clust7" class="cluster">
<title>cluster_g4_scc</title>
<polygon fill="#fafafa" stroke="#999999" stroke-dasharray="5,2" points="128.5,-707.84 128.5,-809.84 331.19,-809.84 331.19,-707.84 128.5,-707.84"/>
<text xml:space="preserve" text-anchor="middle" x="229.85" y="-792.54" font-family="sans" font-size="14.00">SCC</text>
</g>
<!-- g0_A -->
<g id="node1" class="node">
<title>g0_A</title>
<ellipse fill="#cfe8ff" stroke="#2563eb" cx="50" cy="-35.84" rx="18.06" ry="18.06"/>
<text xml:space="preserve" text-anchor="middle" x="50" y="-31.16" font-family="Times,serif" font-size="14.00">A</text>
</g>
<!-- g0_B -->
<g id="node2" class="node">
<title>g0_B</title>
<ellipse fill="#f8f8f8" stroke="#444444" cx="155.09" cy="-35.84" rx="18.59" ry="18.59"/>
<text xml:space="preserve" text-anchor="middle" x="155.09" y="-31.16" font-family="Times,serif" font-size="14.00">B</text>
</g>
<!-- g0_A&#45;&gt;g0_B -->
<g id="edge1" class="edge">
<title>g0_A&#45;&gt;g0_B</title>
<path fill="none" stroke="#555555" d="M68.49,-35.84C83.87,-35.84 106.58,-35.84 124.74,-35.84"/>
<polygon fill="#555555" stroke="#555555" points="124.66,-39.34 134.66,-35.84 124.66,-32.34 124.66,-39.34"/>
</g>
<!-- g0_C -->
<g id="node3" class="node">
<title>g0_C</title>
<ellipse fill="#ffd6d6" stroke="#dc2626" cx="229.32" cy="-35.84" rx="18.59" ry="18.59"/>
<text xml:space="preserve" text-anchor="middle" x="229.32" y="-31.16" font-family="Times,serif" font-size="14.00">C</text>
<text xml:space="preserve" text-anchor="middle" x="186.73" y="-3.95" font-family="Times,serif" font-size="14.00">&quot;Desc&quot;</text>
</g>
<!-- g0_B&#45;&gt;g0_C -->
<g id="edge2" class="edge">
<title>g0_B&#45;&gt;g0_C</title>
<path fill="none" stroke="#555555" d="M173.94,-35.84C181.5,-35.84 190.5,-35.84 198.98,-35.84"/>
<polygon fill="#555555" stroke="#555555" points="198.91,-39.34 208.91,-35.84 198.91,-32.34 198.91,-39.34"/>
</g>
<!-- g1_A -->
<g id="node4" class="node">
<title>g1_A</title>
<ellipse fill="#cfe8ff" stroke="#2563eb" cx="50" cy="-154.84" rx="18.06" ry="18.06"/>
<text xml:space="preserve" text-anchor="middle" x="50" y="-150.16" font-family="Times,serif" font-size="14.00">A</text>
</g>
<!-- g1_B -->
<g id="node5" class="node">
<title>g1_B</title>
<ellipse fill="#f8f8f8" stroke="#444444" cx="155.09" cy="-126.84" rx="18.59" ry="18.59"/>
<text xml:space="preserve" text-anchor="middle" x="155.09" y="-122.16" font-family="Times,serif" font-size="14.00">B</text>
</g>
<!-- g1_A&#45;&gt;g1_B -->
<g id="edge3" class="edge">
<title>g1_A&#45;&gt;g1_B</title>
<path fill="none" stroke="#555555" d="M67.56,-150.34C83.31,-146.06 107.29,-139.55 126.02,-134.46"/>
<polygon fill="#555555" stroke="#555555" points="126.69,-137.91 135.42,-131.91 124.85,-131.15 126.69,-137.91"/>
</g>
<!-- g1_C -->
<g id="node7" class="node">
<title>g1_C</title>
<ellipse fill="#f8f8f8" stroke="#444444" cx="155.09" cy="-182.84" rx="18.59" ry="18.59"/>
<text xml:space="preserve" text-anchor="middle" x="155.09" y="-178.16" font-family="Times,serif" font-size="14.00">C</text>
</g>
<!-- g1_A&#45;&gt;g1_C -->
<g id="edge7" class="edge">
<title>g1_A&#45;&gt;g1_C</title>
<path fill="none" stroke="#555555" d="M67.56,-159.34C83.31,-163.61 107.29,-170.13 126.02,-175.22"/>
<polygon fill="#555555" stroke="#555555" points="124.85,-178.52 135.42,-177.77 126.69,-171.77 124.85,-178.52"/>
</g>
<!-- g1_H -->
<g id="node6" class="node">
<title>g1_H</title>
<ellipse fill="#f8f8f8" stroke="#444444" cx="229.32" cy="-125.84" rx="19.64" ry="19.64"/>
<text xml:space="preserve" text-anchor="middle" x="229.32" y="-121.16" font-family="Times,serif" font-size="14.00">H</text>
</g>
<!-- g1_B&#45;&gt;g1_H -->
<g id="edge4" class="edge">
<title>g1_B&#45;&gt;g1_H</title>
<path fill="none" stroke="#555555" d="M173.94,-126.59C181.19,-126.49 189.76,-126.37 197.93,-126.26"/>
<polygon fill="#555555" stroke="#555555" points="197.94,-129.76 207.9,-126.12 197.85,-122.76 197.94,-129.76"/>
</g>
<!-- g1_I -->
<g id="node12" class="node">
<title>g1_I</title>
<ellipse fill="#ffd6d6" stroke="#dc2626" cx="451.49" cy="-150.84" rx="18" ry="18"/>
<text xml:space="preserve" text-anchor="middle" x="451.49" y="-146.16" font-family="Times,serif" font-size="14.00">I</text>
</g>
<!-- g1_H&#45;&gt;g1_I -->
<g id="edge5" class="edge">
<title>g1_H&#45;&gt;g1_I</title>
<path fill="none" stroke="#555555" d="M249.28,-125.41C259.8,-125.19 273.1,-124.95 284.96,-124.84 309.06,-124.62 315.25,-122.08 339.19,-124.84 368.1,-128.17 400.41,-136.22 422.73,-142.48"/>
<polygon fill="#555555" stroke="#555555" points="421.7,-145.83 432.27,-145.23 423.63,-139.1 421.7,-145.83"/>
</g>
<!-- g1_J -->
<g id="node13" class="node">
<title>g1_J</title>
<ellipse fill="#ffd6d6" stroke="#dc2626" cx="304.08" cy="-151.84" rx="18" ry="18"/>
<text xml:space="preserve" text-anchor="middle" x="304.08" y="-147.16" font-family="Times,serif" font-size="14.00">J</text>
</g>
<!-- g1_H&#45;&gt;g1_J -->
<g id="edge6" class="edge">
<title>g1_H&#45;&gt;g1_J</title>
<path fill="none" stroke="#555555" d="M248.3,-132.27C256.68,-135.26 266.82,-138.88 276.09,-142.2"/>
<polygon fill="#555555" stroke="#555555" points="274.77,-145.44 285.36,-145.51 277.12,-138.85 274.77,-145.44"/>
</g>
<!-- g1_D -->
<g id="node8" class="node">
<title>g1_D</title>
<ellipse fill="#f8f8f8" stroke="#444444" cx="229.32" cy="-182.84" rx="19.12" ry="19.12"/>
<text xml:space="preserve" text-anchor="middle" x="229.32" y="-178.16" font-family="Times,serif" font-size="14.00">D</text>
</g>
<!-- g1_C&#45;&gt;g1_D -->
<g id="edge8" class="edge">
<title>g1_C&#45;&gt;g1_D</title>
<path fill="none" stroke="#555555" d="M173.94,-182.84C181.38,-182.84 190.23,-182.84 198.6,-182.84"/>
<polygon fill="#555555" stroke="#555555" points="198.4,-186.34 208.4,-182.84 198.4,-179.34 198.4,-186.34"/>
</g>
<!-- g1_E -->
<g id="node9" class="node">
<title>g1_E</title>
<ellipse fill="#f8f8f8" stroke="#444444" cx="229.32" cy="-238.84" rx="18.59" ry="18.59"/>
<text xml:space="preserve" text-anchor="middle" x="229.32" y="-234.16" font-family="Times,serif" font-size="14.00">E</text>
</g>
<!-- g1_C&#45;&gt;g1_E -->
<g id="edge9" class="edge">
<title>g1_C&#45;&gt;g1_E</title>
<path fill="none" stroke="#555555" d="M170.36,-193.9C180.25,-201.57 193.65,-211.96 205.07,-220.81"/>
<polygon fill="#555555" stroke="#555555" points="202.84,-223.51 212.88,-226.87 207.12,-217.98 202.84,-223.51"/>
</g>
<!-- g1_F -->
<g id="node10" class="node">
<title>g1_F</title>
<ellipse fill="#f8f8f8" stroke="#444444" cx="304.08" cy="-205.84" rx="18.06" ry="18.06"/>
<text xml:space="preserve" text-anchor="middle" x="304.08" y="-201.16" font-family="Times,serif" font-size="14.00">F</text>
</g>
<!-- g1_D&#45;&gt;g1_F -->
<g id="edge10" class="edge">
<title>g1_D&#45;&gt;g1_F</title>
<path fill="none" stroke="#555555" d="M247.93,-188.41C256.3,-191.05 266.5,-194.28 275.84,-197.23"/>
<polygon fill="#555555" stroke="#555555" points="274.59,-200.5 285.18,-200.18 276.7,-193.83 274.59,-200.5"/>
</g>
<!-- g1_E&#45;&gt;g1_F -->
<g id="edge11" class="edge">
<title>g1_E&#45;&gt;g1_F</title>
<path fill="none" stroke="#555555" d="M246.83,-231.35C255.7,-227.33 266.84,-222.28 276.86,-217.73"/>
<polygon fill="#555555" stroke="#555555" points="278.09,-221.01 285.75,-213.7 275.2,-214.64 278.09,-221.01"/>
</g>
<!-- g1_G -->
<g id="node11" class="node">
<title>g1_G</title>
<ellipse fill="#f8f8f8" stroke="#444444" cx="378.31" cy="-178.84" rx="19.12" ry="19.12"/>
<text xml:space="preserve" text-anchor="middle" x="378.31" y="-174.16" font-family="Times,serif" font-size="14.00">G</text>
</g>
<!-- g1_F&#45;&gt;g1_G -->
<g id="edge12" class="edge">
<title>g1_F&#45;&gt;g1_G</title>
<path fill="none" stroke="#555555" d="M321.47,-199.71C329.72,-196.63 339.97,-192.8 349.41,-189.27"/>
<polygon fill="#555555" stroke="#555555" points="350.42,-192.63 358.56,-185.85 347.96,-186.07 350.42,-192.63"/>
</g>
<!-- g1_G&#45;&gt;g1_I -->
<g id="edge13" class="edge">
<title>g1_G&#45;&gt;g1_I</title>
<path fill="none" stroke="#555555" d="M396.54,-172.06C404.73,-168.84 414.7,-164.91 423.84,-161.32"/>
<polygon fill="#555555" stroke="#555555" points="424.96,-164.64 432.98,-157.73 422.39,-158.13 424.96,-164.64"/>
</g>
<!-- g2_A -->
<g id="node14" class="node">
<title>g2_A</title>
<ellipse fill="#cfe8ff" stroke="#2563eb" cx="50" cy="-531.84" rx="18.06" ry="18.06"/>
<text xml:space="preserve" text-anchor="middle" x="50" y="-527.16" font-family="Times,serif" font-size="14.00">A</text>
</g>
<!-- g2_B -->
<g id="node15" class="node">
<title>g2_B</title>
<ellipse fill="#f8f8f8" stroke="#444444" cx="155.09" cy="-484.84" rx="18.59" ry="18.59"/>
<text xml:space="preserve" text-anchor="middle" x="155.09" y="-480.16" font-family="Times,serif" font-size="14.00">B</text>
</g>
<!-- g2_A&#45;&gt;g2_B -->
<g id="edge14" class="edge">
<title>g2_A&#45;&gt;g2_B</title>
<path fill="none" stroke="#555555" d="M67.08,-524.78C76.78,-520.5 89.37,-514.91 100.5,-509.84 109.3,-505.83 118.88,-501.39 127.48,-497.37"/>
<polygon fill="#555555" stroke="#555555" points="128.77,-500.63 136.34,-493.22 125.8,-494.29 128.77,-500.63"/>
</g>
<!-- g2_C -->
<g id="node17" class="node">
<title>g2_C</title>
<ellipse fill="#f8f8f8" stroke="#444444" cx="304.08" cy="-531.84" rx="18.59" ry="18.59"/>
<text xml:space="preserve" text-anchor="middle" x="304.08" y="-527.16" font-family="Times,serif" font-size="14.00">C</text>
</g>
<!-- g2_A&#45;&gt;g2_C -->
<g id="edge18" class="edge">
<title>g2_A&#45;&gt;g2_C</title>
<path fill="none" stroke="#555555" d="M68.33,-531.84C110.95,-531.84 221.24,-531.84 274.06,-531.84"/>
<polygon fill="#555555" stroke="#555555" points="273.78,-535.34 283.78,-531.84 273.78,-528.34 273.78,-535.34"/>
</g>
<!-- g2_H -->
<g id="node16" class="node">
<title>g2_H</title>
<ellipse fill="#f8f8f8" stroke="#444444" cx="229.32" cy="-476.84" rx="19.64" ry="19.64"/>
<text xml:space="preserve" text-anchor="middle" x="229.32" y="-472.16" font-family="Times,serif" font-size="14.00">H</text>
</g>
<!-- g2_B&#45;&gt;g2_H -->
<g id="edge15" class="edge">
<title>g2_B&#45;&gt;g2_H</title>
<path fill="none" stroke="#555555" d="M173.94,-482.86C181.27,-482.05 189.96,-481.09 198.21,-480.17"/>
<polygon fill="#555555" stroke="#555555" points="198.35,-483.68 207.9,-479.1 197.58,-476.72 198.35,-483.68"/>
</g>
<!-- g2_I -->
<g id="node22" class="node">
<title>g2_I</title>
<ellipse fill="#f8f8f8" stroke="#444444" cx="304.08" cy="-422.84" rx="18" ry="18"/>
<text xml:space="preserve" text-anchor="middle" x="304.08" y="-418.16" font-family="Times,serif" font-size="14.00">I</text>
</g>
<!-- g2_H&#45;&gt;g2_I -->
<g id="edge16" class="edge">
<title>g2_H&#45;&gt;g2_I</title>
<path fill="none" stroke="#555555" d="M245.75,-465.39C255.69,-458.01 268.79,-448.29 279.96,-440"/>
<polygon fill="#555555" stroke="#555555" points="281.99,-442.85 287.93,-434.08 277.81,-437.23 281.99,-442.85"/>
</g>
<!-- g2_J -->
<g id="node23" class="node">
<title>g2_J</title>
<ellipse fill="#ffd6d6" stroke="#dc2626" cx="304.08" cy="-476.84" rx="18" ry="18"/>
<text xml:space="preserve" text-anchor="middle" x="304.08" y="-472.16" font-family="Times,serif" font-size="14.00">J</text>
</g>
<!-- g2_H&#45;&gt;g2_J -->
<g id="edge17" class="edge">
<title>g2_H&#45;&gt;g2_J</title>
<path fill="none" stroke="#555555" d="M249.44,-476.84C257.11,-476.84 266.11,-476.84 274.52,-476.84"/>
<polygon fill="#555555" stroke="#555555" points="274.32,-480.34 284.31,-476.84 274.31,-473.34 274.32,-480.34"/>
</g>
<!-- g2_D -->
<g id="node18" class="node">
<title>g2_D</title>
<ellipse fill="#f8f8f8" stroke="#444444" cx="378.31" cy="-528.84" rx="19.12" ry="19.12"/>
<text xml:space="preserve" text-anchor="middle" x="378.31" y="-524.16" font-family="Times,serif" font-size="14.00">D</text>
</g>
<!-- g2_C&#45;&gt;g2_D -->
<g id="edge19" class="edge">
<title>g2_C&#45;&gt;g2_D</title>
<path fill="none" stroke="#555555" d="M322.93,-531.1C330.37,-530.79 339.21,-530.42 347.58,-530.07"/>
<polygon fill="#555555" stroke="#555555" points="347.55,-533.58 357.39,-529.67 347.25,-526.58 347.55,-533.58"/>
</g>
<!-- g2_E -->
<g id="node19" class="node">
<title>g2_E</title>
<ellipse fill="#f8f8f8" stroke="#444444" cx="378.31" cy="-469.84" rx="18.59" ry="18.59"/>
<text xml:space="preserve" text-anchor="middle" x="378.31" y="-465.16" font-family="Times,serif" font-size="14.00">E</text>
</g>
<!-- g2_C&#45;&gt;g2_E -->
<g id="edge20" class="edge">
<title>g2_C&#45;&gt;g2_E</title>
<path fill="none" stroke="#555555" d="M319.13,-520.52C325.33,-515.48 332.67,-509.42 339.19,-503.84 344.54,-499.26 350.24,-494.25 355.56,-489.51"/>
<polygon fill="#555555" stroke="#555555" points="357.78,-492.22 362.89,-482.94 353.11,-487.01 357.78,-492.22"/>
</g>
<!-- g2_F -->
<g id="node20" class="node">
<title>g2_F</title>
<ellipse fill="#f8f8f8" stroke="#444444" cx="451.49" cy="-469.84" rx="18.06" ry="18.06"/>
<text xml:space="preserve" text-anchor="middle" x="451.49" y="-465.16" font-family="Times,serif" font-size="14.00">F</text>
</g>
<!-- g2_D&#45;&gt;g2_F -->
<g id="edge21" class="edge">
<title>g2_D&#45;&gt;g2_F</title>
<path fill="none" stroke="#555555" d="M393.71,-516.9C403.61,-508.69 416.95,-497.63 428.22,-488.3"/>
<polygon fill="#555555" stroke="#555555" points="430.44,-491 435.9,-481.93 425.97,-485.62 430.44,-491"/>
</g>
<!-- g2_E&#45;&gt;g2_F -->
<g id="edge22" class="edge">
<title>g2_E&#45;&gt;g2_F</title>
<path fill="none" stroke="#555555" d="M397.27,-469.84C404.77,-469.84 413.67,-469.84 422.02,-469.84"/>
<polygon fill="#555555" stroke="#555555" points="421.75,-473.34 431.75,-469.84 421.75,-466.34 421.75,-473.34"/>
</g>
<!-- g2_G -->
<g id="node21" class="node">
<title>g2_G</title>
<ellipse fill="#f8f8f8" stroke="#444444" cx="524.66" cy="-443.84" rx="19.12" ry="19.12"/>
<text xml:space="preserve" text-anchor="middle" x="524.66" y="-439.16" font-family="Times,serif" font-size="14.00">G</text>
</g>
<!-- g2_F&#45;&gt;g2_G -->
<g id="edge23" class="edge">
<title>g2_F&#45;&gt;g2_G</title>
<path fill="none" stroke="#555555" d="M468.99,-463.81C476.94,-460.91 486.68,-457.35 495.73,-454.04"/>
<polygon fill="#555555" stroke="#555555" points="496.64,-457.44 504.83,-450.72 494.24,-450.86 496.64,-457.44"/>
</g>
<!-- g2_G&#45;&gt;g2_I -->
<g id="edge24" class="edge">
<title>g2_G&#45;&gt;g2_I</title>
<path fill="none" stroke="#555555" d="M505.37,-442.08C467.28,-438.42 379.25,-429.97 333.63,-425.58"/>
<polygon fill="#555555" stroke="#555555" points="334.02,-422.1 323.74,-424.63 333.35,-429.07 334.02,-422.1"/>
</g>
<!-- g2_I&#45;&gt;g2_E -->
<g id="edge25" class="edge">
<title>g2_I&#45;&gt;g2_E</title>
<path fill="none" stroke="#555555" d="M319.69,-432.35C329.16,-438.51 341.73,-446.69 352.71,-453.83"/>
<polygon fill="#555555" stroke="#555555" points="350.66,-456.67 360.95,-459.19 354.47,-450.81 350.66,-456.67"/>
</g>
<!-- g2_L -->
<g id="node24" class="node">
<title>g2_L</title>
<ellipse fill="#f8f8f8" stroke="#444444" cx="50" cy="-334.84" rx="18" ry="18"/>
<text xml:space="preserve" text-anchor="middle" x="50" y="-330.16" font-family="Times,serif" font-size="14.00">L</text>
</g>
<!-- g2_M -->
<g id="node25" class="node">
<title>g2_M</title>
<ellipse fill="#f8f8f8" stroke="#444444" cx="50" cy="-391.84" rx="21.22" ry="21.22"/>
<text xml:space="preserve" text-anchor="middle" x="50" y="-387.16" font-family="Times,serif" font-size="14.00">M</text>
</g>
<!-- g2_N -->
<g id="node26" class="node">
<title>g2_N</title>
<ellipse fill="#f8f8f8" stroke="#444444" cx="50" cy="-450.84" rx="19.64" ry="19.64"/>
<text xml:space="preserve" text-anchor="middle" x="50" y="-446.16" font-family="Times,serif" font-size="14.00">N</text>
</g>
<!-- g3_A -->
<g id="node27" class="node">
<title>g3_A</title>
<ellipse fill="#eeeeee" stroke="#888888" cx="50" cy="-619.84" rx="18.06" ry="18.06"/>
<text xml:space="preserve" text-anchor="middle" x="50" y="-615.16" font-family="Times,serif" font-size="14.00">A</text>
</g>
<!-- g3_A&#45;&gt;g3_A -->
<g id="edge26" class="edge">
<title>g3_A&#45;&gt;g3_A</title>
<path fill="none" stroke="#555555" d="M35.22,-630.55C25.37,-642.38 30.3,-655.9 50,-655.9 64.01,-655.9 70.55,-649.07 69.62,-640.86"/>
<polygon fill="#555555" stroke="#555555" points="72.84,-639.48 65.42,-631.92 66.5,-642.46 72.84,-639.48"/>
</g>
<!-- g4_A -->
<g id="node28" class="node">
<title>g4_A</title>
<ellipse fill="#cfe8ff" stroke="#2563eb" cx="50" cy="-734.84" rx="18.06" ry="18.06"/>
<text xml:space="preserve" text-anchor="middle" x="50" y="-730.16" font-family="Times,serif" font-size="14.00">A</text>
</g>
<!-- g4_B -->
<g id="node29" class="node">
<title>g4_B</title>
<ellipse fill="#f8f8f8" stroke="#444444" cx="155.09" cy="-734.84" rx="18.59" ry="18.59"/>
<text xml:space="preserve" text-anchor="middle" x="155.09" y="-730.16" font-family="Times,serif" font-size="14.00">B</text>
</g>
<!-- g4_A&#45;&gt;g4_B -->
<g id="edge27" class="edge">
<title>g4_A&#45;&gt;g4_B</title>
<path fill="none" stroke="#555555" d="M68.49,-734.84C83.87,-734.84 106.58,-734.84 124.74,-734.84"/>
<polygon fill="#555555" stroke="#555555" points="124.66,-738.34 134.66,-734.84 124.66,-731.34 124.66,-738.34"/>
</g>
<!-- g4_C -->
<g id="node30" class="node">
<title>g4_C</title>
<ellipse fill="#f8f8f8" stroke="#444444" cx="229.32" cy="-734.84" rx="18.59" ry="18.59"/>
<text xml:space="preserve" text-anchor="middle" x="229.32" y="-730.16" font-family="Times,serif" font-size="14.00">C</text>
</g>
<!-- g4_B&#45;&gt;g4_C -->
<g id="edge28" class="edge">
<title>g4_B&#45;&gt;g4_C</title>
<path fill="none" stroke="#555555" d="M173.21,-729C181.21,-728.15 190.96,-727.9 200.02,-728.23"/>
<polygon fill="#555555" stroke="#555555" points="199.6,-731.71 209.82,-728.91 200.08,-724.73 199.6,-731.71"/>
</g>
<!-- g4_C&#45;&gt;g4_B -->
<g id="edge29" class="edge">
<title>g4_C&#45;&gt;g4_B</title>
<path fill="none" stroke="#555555" d="M211.33,-740.67C203.34,-741.52 193.6,-741.78 184.53,-741.45"/>
<polygon fill="#555555" stroke="#555555" points="184.93,-737.97 174.72,-740.78 184.46,-744.96 184.93,-737.97"/>
</g>
<!-- g4_D -->
<g id="node31" class="node">
<title>g4_D</title>
<ellipse fill="#f8f8f8" stroke="#444444" cx="304.08" cy="-744.84" rx="19.12" ry="19.12"/>
<text xml:space="preserve" text-anchor="middle" x="304.08" y="-740.16" font-family="Times,serif" font-size="14.00">D</text>
</g>
<!-- g4_C&#45;&gt;g4_D -->
<g id="edge30" class="edge">
<title>g4_C&#45;&gt;g4_D</title>
<path fill="none" stroke="#555555" d="M247.93,-737.26C255.62,-738.32 264.86,-739.59 273.55,-740.78"/>
<polygon fill="#555555" stroke="#555555" points="272.98,-744.24 283.37,-742.13 273.94,-737.3 272.98,-744.24"/>
</g>
<!-- g4_D&#45;&gt;g4_B -->
<g id="edge31" class="edge">
<title>g4_D&#45;&gt;g4_B</title>
<path fill="none" stroke="#555555" d="M286.48,-752.88C277.63,-756.72 266.43,-760.9 255.91,-762.84 235.7,-766.56 229.63,-767.74 209.68,-762.84 199.68,-760.38 189.47,-755.7 180.69,-750.85"/>
<polygon fill="#555555" stroke="#555555" points="182.48,-747.84 172.09,-745.77 178.91,-753.87 182.48,-747.84"/>
</g>
</g>
</svg>
